<svg xmlns="http://www.w3.org/2000/svg" width="127" height="127" fill="none" viewBox="-1 -2 127 127"><style>@media (prefers-color-scheme:dark){.a{fill:#fcfbde}}</style><path fill="#1C0D1F" fill-rule="evenodd" d="M4.6 92.674h43.494l3.678-12.746-3.678 12.746zm-.271-.883a3 3 0 0 1 .203-.005H47.44l3.166-10.97H31.15c-2.339 0-4.19-.922-5.41-2.803l-.006-.009-.005-.008c-1.179-1.907-1.461-4.044-.887-6.343l.055-.223.12-.129 1.504-5.448 10.142-35.587c.571-2.108 1.753-3.9 3.51-5.367 1.77-1.56 3.749-2.374 5.913-2.374h28.311c2.415 0 4.284.967 5.43 2.953 1.182 1.921 1.412 4.105.763 6.471l-.002.005a1275 1275 0 0 1-4.572 15.88 4078 4078 0 0 0-3.982 14.055L99.42 49.914c.464-.265.984-.392 1.528-.288.552.105 1.014.425 1.395.835.75.81.949 1.822.651 2.895l-.002.007-3.216 11.246c-.143.889-.717 1.502-1.525 1.832L70.317 78.566q-.897.483-1.899.963l-.025.012-.025.01q-.718.29-1.504.58a824 824 0 0 0-2.881 10.256 829 829 0 0 1-3.013 10.714l-.02.066-.028.062q-.103.223-.14.325v.063l-.058.155c-.732 1.93-1.99 3.543-3.74 4.835-1.69 1.384-3.545 2.106-5.547 2.106H12.318c8.31 10.529 23.17 15.076 36.886 10.902 33.562-10.218 75.221-32.931 75.221-58.698 0-25.766-42.52-53.069-75.406-59.738C29.316-2.818 17.358 3.596 9.865 16.66 3.703 27.41 0 44.265 0 60.918c0 10.788 1.555 21.647 4.329 30.874m21.36-19.92q-.78 3.127.78 5.652 1.19 1.832 3.282 2.268-2.093-.436-3.28-2.268-1.56-2.525-.78-5.651l.11-.12 1.561-5.652 10.143-35.592q.78-2.886 3.233-4.93 2.145-1.894 4.632-2.13-2.487.236-4.633 2.13-2.452 2.044-3.232 4.93L27.362 66.1l-1.56 5.652zm20.399-48.458h28.311zM99.812 50.71 70.943 63.334zM63.475 38.684 56.12 64.657zm-13.386.889-6.853 24.196H55.46l6.853-24.196z" class="a" clip-rule="evenodd"/></svg>